# xmcd
#
# Track frame offsets:
#	150
#	13652
#	26692
#	39825
#	51947
#	63035
#	80115
#	92910
#	105567
#	116422
#	130650
#	143162
#
# Disc length: 2146 seconds
#
# Revision: 4
# Processed by: cddbd v1.5.2PL0 Copyright (c) Steve Scherf et al.
# Submitted via: audiograbber 1.83.01
#
DISCID=9608600c
DTITLE=Bettye Swann - Make Me Yours
DYEAR=1900
DGENRE=Oldies
TTITLE0=Make Me Yours
TTITLE1=Fall In Love With Me
TTITLE2=Don't Look Back
TTITLE3=Don't Wait Too Long
TTITLE4=Don't Take My Mind
TTITLE5=I Can't Stop Loving You
TTITLE6=I Think I'm Falling In Love
TTITLE7=You Gave Me Love
TTITLE8=The Heartache Is Gone
TTITLE9=I Will Not Cry
TTITLE10=What Is My Life Coming To
TTITLE11=A Change Is Gonna Come
EXTD=
EXTT0=
EXTT1=
EXTT2=
EXTT3=
EXTT4=
EXTT5=
EXTT6=
EXTT7=
EXTT8=
EXTT9=
EXTT10=
EXTT11=
PLAYORDER=
